<?xml version="1.0" standalone="no"?>
<!DOCTYPE svg PUBLIC "-//W3C//DTD SVG 20010904//EN"
 "http://www.w3.org/TR/2001/REC-SVG-20010904/DTD/svg10.dtd">
<svg version="1.0" xmlns="http://www.w3.org/2000/svg"
 width="520.000000pt" height="265.000000pt" viewBox="0 0 520.000000 265.000000"
 preserveAspectRatio="xMidYMid meet">

<g transform="translate(0.000000,265.000000) scale(0.100000,-0.100000)"
fill="#000000" stroke="none">
<path d="M0 1325 l0 -1325 2600 0 2600 0 0 1325 0 1325 -2600 0 -2600 0 0
-1325z m836 285 c44 -28 59 -74 44 -131 -9 -32 -31 -63 -88 -121 l-75 -78 91
0 92 0 0 -30 0 -30 -140 0 c-139 0 -140 0 -140 23 0 15 24 47 70 92 114 113
146 177 110 220 -17 21 -69 19 -107 -4 -30 -19 -32 -19 -47 -2 -25 27 -19 40
27 61 56 26 121 26 163 0z m348 -14 c31 -28 36 -40 36 -77 0 -54 -18 -85 -100
-173 l-62 -66 91 0 91 0 0 -30 0 -30 -140 0 -140 0 0 28 c0 21 16 43 66 92 36
36 79 83 95 104 65 88 11 156 -87 110 -32 -16 -36 -15 -54 1 -16 14 -17 21 -8
32 20 24 71 41 125 42 45 1 56 -3 87 -33z m1276 -171 l0 -205 -35 0 -35 0 0
155 c0 85 -4 155 -8 155 -5 0 -17 -9 -27 -20 -23 -25 -26 -25 -47 4 -18 24
-18 24 44 70 34 25 72 46 85 46 l23 0 0 -205z m390 75 l0 -130 30 0 c27 0 30
-3 30 -30 0 -27 -3 -30 -30 -30 -29 0 -30 -2 -30 -45 0 -45 0 -45 -35 -45 -35
0 -35 0 -35 45 l0 45 -95 0 c-92 0 -95 1 -95 23 0 12 44 84 97 160 91 129 99
137 130 137 l33 0 0 -130z m1260 -75 l0 -205 -35 0 -35 0 0 155 c0 85 -4 155
-8 155 -5 0 -17 -9 -27 -20 -23 -25 -26 -25 -47 4 -18 24 -18 24 44 70 34 25
72 46 85 46 l23 0 0 -205z m400 175 c0 -29 -1 -30 -51 -30 -61 0 -84 -11 -104
-50 -22 -42 -20 -63 4 -50 29 15 104 12 129 -6 71 -49 67 -182 -6 -230 -34
-22 -113 -22 -147 0 -108 71 -89 331 28 381 18 8 58 14 90 15 57 0 57 0 57
-30z m-3716 -590 c3 0 6 7 6 16 0 8 5 12 10 9 6 -3 10 -19 10 -35 0 -16 -4
-32 -10 -35 -5 -3 -10 1 -10 9 0 21 -17 20 -29 -1 -8 -14 -10 -8 -10 27 0 40
1 43 13 28 7 -10 16 -18 20 -18z m1587 13 c16 27 29 20 29 -16 0 -33 -1 -34
-40 -34 -37 0 -40 2 -40 27 0 36 11 45 28 23 12 -17 14 -17 23 0z m77 -18 c2
-19 -2 -35 -8 -35 -5 0 -10 16 -10 35 0 19 4 35 8 35 4 0 9 -16 10 -35z m1522
25 c0 -5 -8 -10 -17 -10 -17 -1 -17 -1 0 -11 9 -5 17 -16 17 -23 0 -18 -31
-29 -44 -16 -7 7 -4 10 9 10 17 0 17 1 1 19 -10 11 -15 25 -11 30 8 14 45 14
45 1z m400 -24 c0 -34 -13 -47 -37 -38 -19 6 -16 52 2 52 8 0 15 5 15 10 0 6
5 10 10 10 6 0 10 -15 10 -34z m-1700 14 c10 -6 11 -10 3 -10 -7 0 -13 -7 -13
-15 0 -8 5 -15 11 -15 5 0 7 -5 4 -10 -11 -17 -35 9 -35 36 0 26 7 29 30 14z
m-1783 -16 c3 -8 -1 -22 -9 -30 -13 -14 -17 -14 -31 1 -9 8 -14 22 -11 30 8
20 43 19 51 -1z m66 9 c-7 -2 -13 -13 -13 -24 0 -10 -4 -19 -10 -19 -5 0 -10
11 -10 25 0 19 5 25 23 24 12 0 16 -3 10 -6z m77 -17 c0 -25 -15 -37 -37 -28
-19 6 -15 32 5 32 14 0 15 2 2 10 -12 8 -11 10 8 10 17 0 22 -6 22 -24z m60
14 c-10 -6 -11 -10 -2 -10 6 0 12 -6 12 -14 0 -17 -27 -29 -35 -16 -4 6 0 10
7 11 10 0 10 2 1 6 -22 8 -14 33 10 33 18 0 19 -2 7 -10z m1440 -15 c0 -31
-19 -33 -21 -2 l-2 22 -4 -22 c-6 -31 -23 -29 -23 2 0 20 5 25 25 25 20 0 25
-5 25 -25z m51 3 l2 -23 4 23 c2 12 9 22 14 22 14 0 11 -47 -3 -52 -23 -9 -38
3 -38 28 0 30 20 32 21 2z m173 7 c3 -8 -2 -22 -11 -30 -14 -15 -18 -15 -31
-1 -8 8 -12 22 -9 30 8 20 43 21 51 1z m56 5 c-10 -6 -11 -10 -2 -10 15 0 16
-26 1 -36 -6 -3 -16 -1 -22 5 -8 8 -7 11 3 11 11 0 11 3 2 12 -18 18 -14 28
11 28 18 0 19 -2 7 -10z m1238 -7 c2 -7 -5 -13 -15 -14 -17 0 -17 -1 1 -8 12
-5 16 -10 9 -14 -27 -17 -58 24 -36 47 10 10 36 3 41 -11z m73 -1 c-7 -13 -7
-22 0 -29 14 -14 -14 -35 -35 -27 -10 4 -15 13 -12 21 3 8 6 23 6 34 0 14 7
19 25 19 22 0 24 -3 16 -18z m50 -4 l2 -23 4 23 c2 12 9 22 14 22 14 0 11 -47
-3 -52 -23 -9 -38 3 -38 28 0 30 20 32 21 2z m117 -5 c2 -13 -1 -23 -7 -23 -6
0 -11 7 -11 15 0 8 -4 15 -10 15 -5 0 -10 -9 -10 -21 0 -11 -4 -17 -10 -14 -5
3 -10 17 -10 31 0 22 4 25 28 22 19 -2 28 -9 30 -25z m160 3 c4 -21 -14 -37
-35 -29 -14 5 -18 35 -6 47 12 12 38 1 41 -18z m62 14 c-10 -6 -11 -10 -2 -10
6 0 12 -6 12 -14 0 -17 -27 -29 -35 -16 -4 6 0 10 7 11 10 0 10 2 1 6 -22 8
-14 33 10 33 18 0 19 -2 7 -10z"/>
<path d="M2726 1446 c-25 -36 -46 -67 -46 -70 0 -3 23 -6 50 -6 l50 0 0 70 c0
39 -2 70 -4 70 -2 0 -25 -29 -50 -64z"/>
<path d="M4350 1398 c-27 -29 -20 -74 16 -105 31 -28 58 -29 84 -3 22 22 27
78 10 111 -16 28 -82 26 -110 -3z"/>
<path d="M4345 1001 c-3 -5 -1 -12 5 -16 5 -3 10 1 10 9 0 18 -6 21 -15 7z"/>
<path d="M865 1001 c-3 -5 -1 -12 5 -16 5 -3 10 1 10 9 0 18 -6 21 -15 7z"/>
<path d="M2730 994 c0 -8 5 -12 10 -9 6 4 8 11 5 16 -9 14 -15 11 -15 -7z"/>
<path d="M4431 994 c0 -11 3 -14 6 -6 3 7 2 16 -1 19 -3 4 -6 -2 -5 -13z"/>
</g>
</svg>
